<?xml version="1.0" standalone="no"?>
<!DOCTYPE svg PUBLIC "-//W3C//DTD SVG 20010904//EN"
 "http://www.w3.org/TR/2001/REC-SVG-20010904/DTD/svg10.dtd">
<svg version="1.0" xmlns="http://www.w3.org/2000/svg"
 width="1280.000000pt" height="720.000000pt" viewBox="0 0 1280.000000 720.000000"
 preserveAspectRatio="xMidYMid meet">

<g transform="translate(0.000000,720.000000) scale(0.100000,-0.100000)"
fill="#000000" stroke="none">
<path d="M0 3600 l0 -3600 6400 0 6400 0 0 3600 0 3600 -6400 0 -6400 0 0
-3600z m5143 2119 c23 -12 87 -51 142 -87 152 -99 217 -127 295 -127 51 0 77
6 119 28 30 15 59 26 65 24 6 -3 -24 -21 -67 -41 -90 -42 -142 -46 -227 -16
-57 19 -70 18 -70 -6 0 -23 41 -106 73 -147 16 -21 27 -40 25 -43 -3 -2 -16
10 -29 27 -13 18 -36 46 -51 63 -15 17 -35 53 -45 80 -10 27 -23 51 -30 53 -6
3 -10 10 -7 17 3 8 -9 25 -26 40 -33 27 -50 33 -50 16 0 -5 5 -10 10 -10 6 0
10 -7 10 -15 0 -8 -6 -15 -14 -15 -8 0 -17 -6 -19 -12 -3 -7 -6 2 -6 20 -1 25
-5 32 -20 32 -11 0 -22 6 -25 13 -5 10 -7 10 -12 0 -3 -7 -15 -13 -27 -13 -16
0 -18 -3 -9 -12 14 -14 16 -28 4 -28 -9 0 -25 47 -37 103 -3 17 -15 31 -30 37
-25 9 -31 21 -18 33 11 12 32 8 76 -14z m926 -108 c9 -6 -18 -7 -70 -4 -46 3
-86 7 -88 9 -10 9 145 3 158 -5z m-176 -8 c-7 -2 -19 -2 -25 0 -7 3 -2 5 12 5
14 0 19 -2 13 -5z m237 -23 c14 -10 23 -21 20 -23 -3 -3 -18 6 -35 19 -35 28
-22 32 15 4z m-315 0 c-3 -5 -12 -10 -18 -10 -7 0 -6 4 3 10 19 12 23 12 15 0z
m1291 -124 c9 -19 9 -23 -1 -20 -7 3 -17 16 -23 29 -9 18 -8 23 1 19 7 -2 17
-15 23 -28z m410 -72 c-18 -52 -37 -89 -49 -95 -30 -17 -33 -1 -4 25 15 14 24
31 21 39 -3 8 -1 18 5 22 6 3 11 16 11 29 0 12 3 26 8 30 7 8 9 13 11 43 1 13
4 14 13 5 10 -10 6 -30 -16 -98z m-2305 54 c5 -10 6 -18 1 -18 -5 0 -14 11
-20 25 -22 49 -11 44 19 -7z m989 -28 c0 -19 -18 -19 -23 -1 -3 14 -1 18 9 14
8 -3 14 -9 14 -13z m-900 -98 c13 -13 37 -26 52 -29 15 -3 30 -14 34 -25 7
-24 99 -86 141 -94 18 -4 37 -12 43 -19 8 -9 -2 -11 -42 -7 -29 2 -57 8 -62
13 -6 5 -18 9 -27 9 -30 0 -114 76 -164 146 -53 77 -71 117 -28 64 15 -19 39
-45 53 -58z m2478 76 c-7 -19 -34 -32 -54 -24 -19 7 -19 8 0 22 24 17 59 19
54 2z m-608 -60 c-1 -18 -40 30 -40 49 0 11 7 7 20 -10 11 -14 20 -31 20 -39z
m809 -27 c0 -66 -19 -168 -49 -269 -17 -57 -19 -76 -10 -87 10 -12 9 -16 -3
-21 -8 -3 -18 -19 -21 -36 -5 -25 -9 -28 -20 -18 -8 6 -16 26 -18 43 -2 24 -9
33 -28 37 -18 4 -26 13 -28 34 -3 20 0 26 9 21 7 -5 10 -3 6 6 -2 8 23 68 58
134 59 114 92 213 79 238 -3 7 2 3 10 -7 11 -13 16 -39 15 -75z m-704 39 c-19
-21 -35 -26 -35 -12 0 5 10 14 23 20 31 15 32 14 12 -8z m-1888 -32 c-3 -8 -6
-5 -6 6 -1 11 2 17 5 13 3 -3 4 -12 1 -19z m1242 8 c6 -8 17 -39 23 -70 10
-47 10 -58 -2 -70 -17 -16 -87 -56 -98 -56 -6 0 26 175 37 208 3 8 30 0 40
-12z m591 -16 c0 -5 -4 -10 -10 -10 -5 0 -10 5 -10 10 0 6 5 10 10 10 6 0 10
-4 10 -10z m117 -56 c-3 -3 -12 -4 -19 -1 -8 3 -5 6 6 6 11 1 17 -2 13 -5z
m-2090 -179 c3 -9 -2 -24 -11 -34 -9 -10 -16 -24 -16 -33 0 -26 28 -72 65
-108 19 -18 35 -40 35 -46 0 -23 -20 -26 -45 -6 -21 17 -29 18 -50 9 -14 -7
-25 -15 -25 -18 0 -4 19 -15 43 -24 40 -17 41 -18 19 -28 -30 -14 -126 3 -217
38 -38 15 -97 33 -130 40 l-60 12 40 12 c22 6 63 11 91 11 66 0 77 13 79 98
l1 67 64 1 c38 1 66 6 68 13 5 16 42 13 49 -4z m246 -139 c9 -7 17 -20 17 -28
0 -9 6 -21 14 -27 8 -6 16 -25 18 -40 l4 -29 -33 27 c-20 16 -33 35 -33 49 0
13 -5 32 -10 43 -12 22 -3 24 23 5z m2473 -44 c5 -24 3 -32 -8 -32 -10 0 -14
13 -15 41 -1 46 13 41 23 -9z m-2296 -5 c0 -5 -4 -5 -10 -2 -5 3 -10 14 -10
23 0 15 2 15 10 2 5 -8 10 -19 10 -23z m2540 -24 c0 -10 -16 -45 -35 -78 -29
-51 -34 -56 -35 -33 0 30 46 128 61 128 5 0 9 -8 9 -17z m-1188 -26 c84 -43
189 -175 234 -293 36 -95 40 -170 19 -342 -21 -175 -13 -235 36 -295 68 -83
191 -116 298 -81 28 9 51 19 51 23 0 3 17 15 38 26 37 20 51 29 77 53 7 6 17
12 20 12 4 0 24 13 44 29 20 15 56 39 81 52 25 13 72 43 106 66 33 23 76 50
95 61 63 35 310 232 453 361 77 69 108 109 99 125 -3 6 0 6 7 -1 26 -24 -32
-107 -135 -193 -142 -120 -345 -269 -552 -408 -50 -34 -94 -66 -97 -71 -4 -5
8 -20 26 -32 18 -12 74 -62 125 -110 87 -84 100 -92 270 -175 260 -125 319
-177 288 -250 -18 -43 -84 -93 -110 -84 -12 4 -30 1 -45 -8 -18 -11 -22 -12
-12 -2 6 8 12 20 12 27 0 20 -117 74 -161 75 -21 0 -36 4 -33 9 3 5 -9 14 -26
21 -24 8 -29 13 -18 20 9 7 8 8 -6 4 -23 -8 -112 24 -96 34 17 10 -16 22 -69
26 -24 1 -49 8 -55 15 -8 9 -7 11 4 7 44 -15 63 -17 32 -3 -20 10 -30 20 -26
27 5 7 2 9 -9 5 -10 -4 -15 -1 -12 6 2 7 -15 28 -38 47 -22 19 -37 29 -32 21
5 -9 3 -12 -6 -9 -8 3 -15 10 -15 16 -1 7 -2 17 -3 23 0 5 -9 9 -18 8 -10 -1
-27 -1 -38 0 -17 1 -18 3 -5 11 10 6 11 10 3 10 -21 0 -15 21 12 42 28 22 32
45 10 62 -16 12 -22 60 -10 91 5 16 5 17 -4 5 -6 -8 -11 -11 -11 -6 0 15 -60
-46 -76 -77 -35 -67 34 -152 186 -229 l35 -17 -45 2 c-31 2 -45 7 -45 17 0 9
-28 24 -73 39 -70 23 -79 24 -154 13 -96 -14 -110 -8 -136 52 -21 47 -64 85
-125 110 -22 9 -83 45 -138 80 -54 36 -116 70 -139 77 -22 7 -52 23 -66 36
-21 19 -25 30 -20 56 6 34 41 121 68 172 8 17 35 82 58 145 38 104 42 122 38
185 -3 39 -10 79 -16 90 -5 11 -15 34 -22 51 -17 48 -120 138 -152 133 -24 -3
-38 1 -38 11 0 14 33 12 62 -3z m-2184 -46 c3 -28 1 -33 -13 -27 -9 3 -25 6
-35 6 -20 0 -32 23 -23 46 4 10 16 14 37 12 27 -3 31 -7 34 -37z m796 -118
c22 -45 37 -103 26 -103 -7 0 -60 117 -60 133 0 19 18 3 34 -30z m-632 -22
c37 -5 77 -16 90 -25 22 -16 21 -16 -25 -10 -32 5 -47 3 -47 -5 0 -6 -17 -11
-39 -11 -37 0 -40 -2 -38 -27 2 -19 9 -29 22 -31 24 -3 51 -52 30 -52 -17 0
-74 68 -81 98 -6 20 -12 22 -85 22 -43 0 -79 -4 -79 -9 0 -14 -32 -23 -44 -11
-16 16 16 41 71 56 57 15 132 17 225 5z m363 -13 l26 -23 -63 3 c-85 4 -99 9
-74 28 30 21 81 17 111 -8z m3088 5 c-7 -2 -21 -2 -30 0 -10 3 -4 5 12 5 17 0
24 -2 18 -5z m-105 -10 c-10 -2 -26 -2 -35 0 -10 3 -2 5 17 5 19 0 27 -2 18
-5z m-198 -13 c0 -14 -36 -31 -54 -24 -8 3 -17 12 -20 20 -4 11 4 14 34 14 22
0 40 -4 40 -10z m113 3 c-7 -2 -19 -2 -25 0 -7 3 -2 5 12 5 14 0 19 -2 13 -5z
m-2578 -73 c4 -6 11 -25 15 -43 9 -29 8 -30 -5 -13 -8 11 -15 28 -15 37 0 10
-6 20 -12 22 -10 4 -10 6 -1 6 6 1 15 -4 18 -9z m-195 -104 c-3 -16 -12 -32
-19 -34 -11 -4 -12 1 -6 19 4 13 8 42 7 64 l0 40 12 -30 c7 -16 10 -43 6 -59z
m-406 14 c24 0 44 -16 33 -27 -8 -8 -77 19 -90 36 -10 12 -9 13 10 3 12 -7 33
-12 47 -12z m-341 -50 c35 -70 38 -70 -218 -31 -33 5 -81 14 -107 20 -26 6
-67 12 -92 13 -25 0 -46 5 -46 10 0 11 -22 8 210 22 113 7 210 14 217 15 6 0
22 -21 36 -49z m988 24 c5 -15 8 -29 5 -31 -2 -2 -8 10 -14 26 -13 38 -5 41 9
5z m1399 -38 c0 -8 -4 -17 -9 -21 -12 -7 -24 12 -16 25 9 15 25 12 25 -4z
m-59 -119 c-8 -8 -11 -7 -11 4 0 20 13 34 18 19 3 -7 -1 -17 -7 -23z m-23 -32
c-2 -11 -9 -19 -15 -18 -7 2 -10 -3 -7 -11 4 -10 -2 -12 -23 -8 -45 8 -55 22
-44 60 1 1 21 1 46 0 39 -3 45 -6 43 -23z m-1522 -10 c-11 -8 -24 -15 -30 -15
-5 0 -1 7 10 15 10 8 24 14 29 14 6 0 1 -6 -9 -14z m144 5 c0 -5 -2 -10 -4
-10 -3 0 -8 5 -11 10 -3 6 -1 10 4 10 6 0 11 -4 11 -10z m-60 -21 c0 -5 -4 -9
-10 -9 -5 0 -10 7 -10 16 0 8 5 12 10 9 6 -3 10 -10 10 -16z m1300 12 c0 -6
-4 -13 -10 -16 -5 -3 -10 1 -10 9 0 9 5 16 10 16 6 0 10 -4 10 -9z m-1101 -44
c1 -5 -3 -5 -9 -2 -5 3 -10 16 -9 28 0 21 1 21 9 2 5 -11 9 -24 9 -28z m-436
3 c-3 -11 -7 -20 -9 -20 -2 0 -13 9 -24 20 l-20 20 29 0 c24 0 28 -3 24 -20z
m1640 1 c5 -1 -12 -31 -37 -67 -63 -90 -116 -190 -116 -219 0 -19 8 -26 38
-36 21 -6 62 -10 90 -8 51 4 52 4 52 -24 0 -36 -35 -87 -60 -87 -12 0 -21 -10
-25 -30 -4 -20 -13 -30 -25 -30 -10 0 -26 -7 -35 -16 -10 -11 -39 -18 -82 -20
-37 -2 -69 -8 -73 -13 -3 -5 -25 -15 -50 -21 -50 -13 -78 -32 -105 -73 -10
-15 -19 -26 -21 -24 -3 2 5 35 17 73 12 38 21 82 21 97 -1 31 -29 59 -50 52
-7 -3 -29 2 -49 10 -28 12 -34 18 -25 27 8 8 8 16 2 23 -15 18 26 65 56 65 28
0 31 -16 7 -43 -18 -20 -17 -20 12 -13 44 10 96 50 157 116 111 124 158 187
158 214 0 21 23 35 63 38 20 1 37 5 37 9 0 4 8 6 18 4 9 -2 21 -4 25 -4z
m-1643 -141 c0 -5 -16 -20 -35 -32 -42 -28 -49 -43 -30 -62 13 -13 12 -17 -11
-35 -19 -15 -34 -19 -53 -14 -14 3 -22 2 -18 -3 8 -8 -83 -42 -118 -43 -17 -1
-17 -3 -5 -11 12 -8 11 -10 -8 -10 -30 0 -101 37 -109 56 -6 16 32 108 53 124
6 6 29 11 50 13 36 2 39 0 36 -22 -4 -23 -2 -24 45 -19 26 3 80 19 118 36 77
35 85 37 85 22z m850 -33 c0 -13 -3 -27 -7 -30 -9 -10 -33 13 -33 32 0 14 2
14 10 1 8 -13 10 -12 10 3 0 9 5 17 10 17 6 0 10 -10 10 -23z m1356 -134 c-10
-10 -19 5 -10 18 6 11 8 11 12 0 2 -7 1 -15 -2 -18z m-1226 -63 c0 -5 -5 -10
-11 -10 -5 0 -8 -4 -5 -8 3 -5 -1 -9 -8 -9 -8 0 -11 8 -8 19 4 19 32 26 32 8z
m-403 -6 c13 -4 21 -10 18 -14 -3 -4 2 -10 10 -14 20 -7 19 -36 0 -36 -8 0
-15 -6 -15 -12 -1 -7 -9 -3 -19 9 -10 12 -21 19 -25 16 -3 -4 -6 8 -6 25 0 34
2 35 37 26z m-1394 -44 c-23 -39 -9 -53 51 -52 51 1 55 -4 26 -40 -34 -43
-315 -193 -480 -255 -108 -41 -169 -11 -157 77 10 74 75 112 374 216 24 8 78
30 120 48 43 19 79 34 81 35 2 1 -5 -12 -15 -29z m1757 1 c0 -11 -59 -26 -67
-17 -6 6 33 24 55 25 6 1 12 -3 12 -8z m-1210 -31 c0 -6 -5 -18 -11 -28 -9
-14 -8 -31 4 -72 9 -30 15 -55 14 -56 -1 -1 -17 1 -34 3 -30 5 -33 9 -33 40 0
19 -7 47 -15 63 -14 28 -14 29 13 43 32 18 62 21 62 7z m1442 -22 c-9 -9 -15
-9 -24 0 -9 9 -7 12 12 12 19 0 21 -3 12 -12z m25 -95 c-3 -10 -5 -4 -5 12 0
17 2 24 5 18 2 -7 2 -21 0 -30z m-490 -20 c-3 -3 -11 -2 -17 2 -8 5 -7 11 2
22 12 15 13 14 16 -1 2 -10 1 -20 -1 -23z m-1314 -39 c78 -39 178 -107 170
-115 -9 -8 -43 -14 -139 -25 -69 -7 -77 -2 -80 56 -1 19 -5 52 -9 73 -4 20 -5
37 -1 37 4 0 30 -12 59 -26z m2686 -6 c13 -8 29 -8 60 0 40 10 43 9 52 -15 5
-13 9 -35 9 -48 0 -13 5 -27 10 -30 6 -3 10 -12 10 -18 0 -7 -4 -6 -10 3 -6
10 -10 11 -10 3 0 -21 -41 -15 -102 14 -38 18 -58 34 -58 46 0 13 -4 15 -17 8
-33 -16 -153 -49 -147 -40 10 17 -16 9 -79 -23 -34 -17 -66 -32 -72 -32 -27
-2 -86 -50 -91 -74 -10 -47 -12 -49 -39 -54 -41 -8 -67 1 -60 22 3 10 1 21 -5
25 -17 11 -11 26 21 56 19 18 42 29 59 29 36 0 61 10 55 20 -3 5 8 11 24 15
17 3 40 14 53 24 14 10 38 17 60 16 20 -1 35 2 33 6 -3 4 8 9 23 12 71 14 128
30 137 38 13 13 62 11 84 -3z m516 -8 c8 -13 -5 -13 -25 0 -13 8 -13 10 2 10
9 0 20 -4 23 -10z m-1495 -44 c0 -30 -14 -48 -33 -41 -23 9 -31 38 -13 51 24
17 46 13 46 -10z m35 4 c3 -5 1 -10 -4 -10 -6 0 -11 5 -11 10 0 6 2 10 4 10 3
0 8 -4 11 -10z m-2060 -36 c-70 -55 -453 -209 -472 -191 -11 12 134 80 268
126 81 28 162 57 180 66 43 18 49 18 24 -1z m2112 -61 c-3 -10 -5 -2 -5 17 0
19 2 27 5 18 2 -10 2 -26 0 -35z m1448 -82 c-3 -5 -1 -12 5 -16 5 -3 10 -1 10
4 0 17 19 13 43 -10 21 -20 21 -21 2 -16 -11 3 -53 9 -92 13 -105 10 -98 21
20 32 10 1 16 -2 12 -7z m-118 -7 c-3 -3 -12 -4 -19 -1 -8 3 -5 6 6 6 11 1 17
-2 13 -5z m391 -25 c15 0 14 -1 -1 -8 -10 -4 -35 -5 -55 -2 -34 4 -35 5 -12
12 14 4 31 5 38 3 8 -2 21 -4 30 -5z m353 -57 c-7 -2 -18 1 -23 6 -8 8 -4 9
13 5 13 -4 18 -8 10 -11z m-3768 -20 c112 -24 105 -33 -52 -58 -63 -10 -192
-17 -376 -20 -235 -3 -293 -1 -362 13 -88 17 -108 32 -45 34 20 0 44 2 52 4
97 20 98 20 222 30 106 8 173 1 162 -17 -5 -8 -1 -9 12 -4 10 4 57 10 104 13
47 3 98 10 114 17 34 14 62 12 169 -12z m504 -38 c-6 -6 -47 -16 -132 -33 -22
-4 -67 -20 -100 -35 -90 -41 -96 -44 -154 -65 -30 -11 -57 -18 -60 -16 -5 6
-8 5 58 44 30 18 64 34 75 36 12 2 53 15 91 30 39 14 90 30 115 34 56 11 115
13 107 5z m2580 -36 c14 -14 10 -17 -37 -27 -36 -8 -56 -8 -65 -1 -7 6 -20 8
-28 4 -9 -3 -24 1 -32 10 -15 15 -15 16 2 16 17 1 17 1 -1 15 -17 13 -14 14
30 17 54 3 107 -11 131 -34z m80 -2 c-25 -38 -35 -41 -16 -4 10 19 27 37 36
38 1 0 -8 -15 -20 -34z m-270 -2 c-3 -3 -12 -4 -19 -1 -8 3 -5 6 6 6 11 1 17
-2 13 -5z m1103 -39 c13 -14 21 -25 18 -25 -2 0 -15 11 -28 25 -13 14 -21 25
-18 25 2 0 15 -11 28 -25z m56 -81 c8 -18 14 -46 13 -61 0 -20 -5 -12 -13 24
-7 29 -19 60 -27 70 -11 13 -11 15 0 9 7 -5 19 -23 27 -42z m-2141 16 c3 -6
-4 -10 -17 -10 -18 0 -20 2 -8 10 19 12 18 12 25 0z m-1607 -31 c9 0 4 -5 -13
-10 -16 -5 -37 -6 -46 -4 -9 3 -35 -1 -58 -10 -23 -8 -52 -14 -64 -14 -12 0
-53 -9 -92 -20 -38 -12 -77 -20 -85 -18 -25 6 96 57 137 58 21 0 70 7 108 14
39 7 76 11 83 9 8 -2 21 -4 30 -5z m37 1 c3 -5 1 -10 -4 -10 -6 0 -11 5 -11
10 0 6 2 10 4 10 3 0 8 -4 11 -10z m279 -56 c3 -9 -2 -26 -13 -40 -18 -22 -19
-23 -35 -5 -23 25 -20 49 7 54 12 2 25 5 28 6 4 0 10 -6 13 -15z m3426 -61
c-11 -17 -11 -17 -6 0 3 10 6 24 7 30 0 9 2 9 5 0 3 -7 0 -20 -6 -30z m-1755
-44 c11 -17 -1 -21 -15 -4 -8 9 -8 15 -2 15 6 0 14 -5 17 -11z m1709 -31 c-54
-65 -129 -117 -209 -148 -45 -17 -26 -3 40 29 36 18 92 57 123 86 61 58 77 69
46 33z m-1158 -82 c19 -4 32 -11 29 -16 -3 -4 7 -13 22 -18 16 -6 22 -11 15
-11 -27 -2 -112 49 -111 67 1 15 2 15 6 1 2 -10 19 -20 39 -23z m-2424 -96
c-4 -31 -51 -72 -75 -66 -12 3 -21 -3 -27 -18 -5 -13 -16 -26 -25 -30 -11 -4
-14 -12 -10 -26 6 -18 3 -19 -40 -14 -46 7 -125 -17 -125 -38 0 -5 -6 -8 -12
-5 -7 2 -29 -7 -48 -20 -19 -12 -38 -23 -42 -23 -13 0 64 64 114 96 95 58 37
54 -77 -6 -38 -20 -79 -41 -90 -47 -41 -23 -128 -65 -153 -74 -71 -27 43 39
206 120 56 28 102 55 102 61 0 5 12 13 28 16 15 4 34 12 42 19 8 6 47 24 85
39 39 16 79 32 90 37 37 15 60 7 57 -21z m3199 6 l33 -14 -58 -7 c-56 -7 -59
-9 -77 -49 l-19 -41 0 51 c0 27 5 55 12 62 16 16 68 15 109 -2z m-564 -80 c-6
-19 -52 -13 -51 6 1 9 -4 14 -11 12 -6 -3 -12 1 -12 9 0 12 6 12 39 -1 21 -8
37 -20 35 -26z m-1907 16 c0 -12 -3 -12 -15 -2 -8 7 -15 13 -15 15 0 1 7 2 15
2 8 0 15 -7 15 -15z m1807 -52 c6 -12 16 -26 23 -30 16 -10 -36 -42 -63 -38
-29 4 -36 58 -11 82 20 21 35 17 51 -14z m228 0 c3 -5 1 -10 -4 -10 -6 0 -11
5 -11 10 0 6 2 10 4 10 3 0 8 -4 11 -10z m-672 -23 c33 0 44 -4 40 -14 -3 -7
-8 -11 -12 -8 -14 8 5 -78 37 -170 37 -108 52 -172 45 -192 -6 -15 -2 -23
-100 170 -50 99 -66 140 -70 185 -3 38 -1 52 5 43 6 -7 29 -13 55 -14z m719
-32 c7 -55 46 -135 134 -275 116 -184 166 -305 134 -325 -5 -3 -10 3 -10 14 0
24 -50 120 -115 220 -111 172 -190 358 -171 406 10 27 23 9 28 -40z m-2772
-22 c0 -9 -7 -25 -17 -35 -9 -11 -11 -18 -5 -18 14 0 15 -19 3 -39 -11 -17
-48 -6 -56 18 -4 13 5 30 27 54 38 39 48 44 48 20z m-680 -98 c0 -6 -104 -55
-117 -55 -13 0 40 34 72 46 36 14 45 16 45 9z m1917 -48 c-3 -19 1 -43 9 -57
17 -32 17 -78 0 -112 -8 -15 -17 -58 -21 -95 -12 -133 -16 -157 -32 -184 -15
-25 -15 -31 -3 -54 10 -19 11 -31 4 -43 -6 -9 -11 -37 -13 -62 -2 -25 -5 -49
-8 -54 -4 -5 -8 -27 -10 -50 -6 -68 -50 -221 -85 -293 -30 -62 -123 -173 -146
-173 -4 0 0 33 10 73 10 39 22 118 25 175 5 88 3 107 -13 137 -10 19 -22 35
-26 35 -5 0 -8 5 -8 10 0 6 14 10 31 10 18 0 28 -4 24 -10 -9 -15 17 -70 33
-70 7 0 15 7 18 15 4 8 12 15 19 15 7 0 18 7 25 15 7 8 23 15 35 15 24 0 35
17 35 55 0 19 -4 23 -22 20 -12 -3 -26 -9 -32 -15 -21 -21 -28 -9 -7 14 45 48
91 248 120 531 9 88 30 185 39 185 3 0 2 -15 -1 -33z m-1277 -44 c0 -5 -32
-30 -70 -58 -39 -27 -101 -73 -139 -102 -38 -28 -81 -59 -95 -68 l-26 -17 14
33 c11 25 20 33 35 32 12 -2 21 2 21 7 0 6 6 10 13 10 8 0 24 9 37 20 13 11
26 20 29 20 3 0 20 13 37 29 17 16 44 35 60 44 16 8 38 24 48 36 19 21 36 27
36 14z m2603 -300 c-7 -2 -19 -2 -25 0 -7 3 -2 5 12 5 14 0 19 -2 13 -5z m136
-9 c10 -9 -35 -3 -49 6 -11 8 -7 9 15 4 17 -4 32 -8 34 -10z m-3184 -24 c-18
-20 -35 -26 -35 -12 0 4 10 12 23 18 32 16 32 16 12 -6z m2985 -15 c-19 -23
-6 -163 24 -260 82 -271 96 -322 94 -345 -2 -19 -12 -5 -45 62 -51 103 -99
168 -196 266 -90 93 -187 177 -187 164 0 -5 17 -24 38 -42 41 -36 102 -108
102 -121 0 -5 -17 9 -37 30 -81 83 -123 134 -117 142 3 5 1 9 -3 9 -5 0 -18 7
-29 16 -18 14 -17 15 17 9 28 -4 40 -1 54 15 10 11 27 20 37 20 10 0 32 10 49
22 l30 22 42 -22 c53 -28 66 -28 96 3 25 27 52 35 31 10z m327 -1 c-3 -3 -12
-4 -19 -1 -8 3 -5 6 6 6 11 1 17 -2 13 -5z m58 -14 c7 -12 -2 -12 -30 0 -19 8
-19 9 2 9 12 1 25 -3 28 -9z m95 -20 l25 -8 -25 0 c-14 0 -34 3 -45 8 l-20 9
20 -1 c11 0 31 -4 45 -8z m-3570 -29 c0 -5 -24 -26 -52 -47 -71 -51 -159 -127
-153 -132 2 -3 24 7 47 22 l43 27 -40 -35 c-22 -20 -46 -34 -53 -31 -7 3 -11
1 -8 -4 8 -12 -42 -44 -55 -36 -5 4 -8 1 -7 -5 2 -7 -21 -25 -49 -42 -29 -16
-53 -26 -53 -20 0 5 33 36 73 68 39 32 81 67 92 77 11 10 39 33 63 50 23 18
64 51 90 74 47 43 62 51 62 34z m10 -46 c-7 -8 -17 -15 -23 -15 -6 0 -2 7 9
15 25 19 30 19 14 0z m-60 -45 c0 -5 -8 -10 -17 -10 -15 0 -16 2 -3 10 19 12
20 12 20 0z m3004 -166 c9 -24 2 -26 -12 -4 -7 11 -8 20 -3 20 5 0 12 -7 15
-16z m-1516 -31 c-10 -2 -26 -2 -35 0 -10 3 -2 5 17 5 19 0 27 -2 18 -5z
m-253 -50 c-68 -26 -95 -32 -95 -23 0 5 19 14 43 20 23 6 47 13 52 15 6 2 17
3 25 4 8 0 -3 -7 -25 -16z"/>
<path d="M5140 5639 c0 -17 4 -28 10 -24 11 7 9 55 -2 55 -4 0 -8 -14 -8 -31z"/>
<path d="M6458 1672 c-9 -23 -13 -42 -9 -42 13 0 33 46 29 66 -2 13 -8 6 -20
-24z"/>
<path d="M4480 1629 c0 -5 5 -7 10 -4 6 3 10 8 10 11 0 2 -4 4 -10 4 -5 0 -10
-5 -10 -11z"/>
</g>
</svg>
